<svg id="visual" viewBox="0 0 900 600" width="900" height="600" xmlns="http://www.w3.org/2000/svg" xmlns:xlink="http://www.w3.org/1999/xlink" version="1.1"><rect x="0" y="0" width="900" height="600" fill="#001220"></rect><defs><linearGradient id="grad1_0" x1="33.3%" y1="0%" x2="100%" y2="100%"><stop offset="20%" stop-color="#fbae3c" stop-opacity="1"></stop><stop offset="80%" stop-color="#fbae3c" stop-opacity="1"></stop></linearGradient></defs><defs><linearGradient id="grad1_1" x1="33.3%" y1="0%" x2="100%" y2="100%"><stop offset="20%" stop-color="#fbae3c" stop-opacity="1"></stop><stop offset="80%" stop-color="#f17c53" stop-opacity="1"></stop></linearGradient></defs><defs><linearGradient id="grad1_2" x1="33.3%" y1="0%" x2="100%" y2="100%"><stop offset="20%" stop-color="#cc5867" stop-opacity="1"></stop><stop offset="80%" stop-color="#f17c53" stop-opacity="1"></stop></linearGradient></defs><defs><linearGradient id="grad1_3" x1="33.3%" y1="0%" x2="100%" y2="100%"><stop offset="20%" stop-color="#cc5867" stop-opacity="1"></stop><stop offset="80%" stop-color="#96446e" stop-opacity="1"></stop></linearGradient></defs><defs><linearGradient id="grad1_4" x1="33.3%" y1="0%" x2="100%" y2="100%"><stop offset="20%" stop-color="#593762" stop-opacity="1"></stop><stop offset="80%" stop-color="#96446e" stop-opacity="1"></stop></linearGradient></defs><defs><linearGradient id="grad1_5" x1="33.3%" y1="0%" x2="100%" y2="100%"><stop offset="20%" stop-color="#593762" stop-opacity="1"></stop><stop offset="80%" stop-color="#232745" stop-opacity="1"></stop></linearGradient></defs><defs><linearGradient id="grad1_6" x1="33.3%" y1="0%" x2="100%" y2="100%"><stop offset="20%" stop-color="#001220" stop-opacity="1"></stop><stop offset="80%" stop-color="#232745" stop-opacity="1"></stop></linearGradient></defs><defs><linearGradient id="grad2_0" x1="0%" y1="0%" x2="66.7%" y2="100%"><stop offset="20%" stop-color="#fbae3c" stop-opacity="1"></stop><stop offset="80%" stop-color="#fbae3c" stop-opacity="1"></stop></linearGradient></defs><defs><linearGradient id="grad2_1" x1="0%" y1="0%" x2="66.7%" y2="100%"><stop offset="20%" stop-color="#f17c53" stop-opacity="1"></stop><stop offset="80%" stop-color="#fbae3c" stop-opacity="1"></stop></linearGradient></defs><defs><linearGradient id="grad2_2" x1="0%" y1="0%" x2="66.7%" y2="100%"><stop offset="20%" stop-color="#f17c53" stop-opacity="1"></stop><stop offset="80%" stop-color="#cc5867" stop-opacity="1"></stop></linearGradient></defs><defs><linearGradient id="grad2_3" x1="0%" y1="0%" x2="66.7%" y2="100%"><stop offset="20%" stop-color="#96446e" stop-opacity="1"></stop><stop offset="80%" stop-color="#cc5867" stop-opacity="1"></stop></linearGradient></defs><defs><linearGradient id="grad2_4" x1="0%" y1="0%" x2="66.7%" y2="100%"><stop offset="20%" stop-color="#96446e" stop-opacity="1"></stop><stop offset="80%" stop-color="#593762" stop-opacity="1"></stop></linearGradient></defs><defs><linearGradient id="grad2_5" x1="0%" y1="0%" x2="66.7%" y2="100%"><stop offset="20%" stop-color="#232745" stop-opacity="1"></stop><stop offset="80%" stop-color="#593762" stop-opacity="1"></stop></linearGradient></defs><defs><linearGradient id="grad2_6" x1="0%" y1="0%" x2="66.7%" y2="100%"><stop offset="20%" stop-color="#232745" stop-opacity="1"></stop><stop offset="80%" stop-color="#001220" stop-opacity="1"></stop></linearGradient></defs><g transform="translate(900, 0)"><path d="M0 351.5C-26.1 311.9 -52.2 272.3 -85.9 264.4C-119.6 256.5 -161 280.2 -201.6 277.5C-242.3 274.8 -282.2 245.5 -284.4 206.6C-286.6 167.7 -250.9 119.2 -255.8 83.1C-260.7 47.1 -306.1 23.5 -351.5 0L0 0Z" fill="#0f1d33"></path><path d="M0 301.3C-22.4 267.4 -44.7 233.4 -73.6 226.6C-102.5 219.8 -138 240.2 -172.8 237.9C-207.7 235.5 -241.9 210.5 -243.8 177.1C-245.6 143.8 -215.1 102.1 -219.3 71.3C-223.5 40.4 -262.4 20.2 -301.3 0L0 0Z" fill="#3d3056"></path><path d="M0 251.1C-18.6 222.8 -37.3 194.5 -61.4 188.9C-85.4 183.2 -115 200.2 -144 198.2C-173 196.3 -201.6 175.4 -203.1 147.6C-204.7 119.8 -179.2 85.1 -182.7 59.4C-186.2 33.6 -218.7 16.8 -251.1 0L0 0Z" fill="#773d6b"></path><path d="M0 200.9C-14.9 178.2 -29.8 155.6 -49.1 151.1C-68.4 146.6 -92 160.1 -115.2 158.6C-138.4 157 -161.3 140.3 -162.5 118.1C-163.8 95.8 -143.4 68.1 -146.2 47.5C-149 26.9 -174.9 13.5 -200.9 0L0 0Z" fill="#b34c6d"></path><path d="M0 150.7C-11.2 133.7 -22.4 116.7 -36.8 113.3C-51.3 109.9 -69 120.1 -86.4 118.9C-103.8 117.8 -121 105.2 -121.9 88.6C-122.8 71.9 -107.5 51.1 -109.6 35.6C-111.7 20.2 -131.2 10.1 -150.7 0L0 0Z" fill="#e1685e"></path><path d="M0 100.4C-7.5 89.1 -14.9 77.8 -24.5 75.5C-34.2 73.3 -46 80.1 -57.6 79.3C-69.2 78.5 -80.6 70.2 -81.3 59C-81.9 47.9 -71.7 34 -73.1 23.8C-74.5 13.5 -87.5 6.7 -100.4 0L0 0Z" fill="#f99447"></path><path d="M0 50.2C-3.7 44.6 -7.5 38.9 -12.3 37.8C-17.1 36.6 -23 40 -28.8 39.6C-34.6 39.3 -40.3 35.1 -40.6 29.5C-40.9 24 -35.8 17 -36.5 11.9C-37.2 6.7 -43.7 3.4 -50.2 0L0 0Z" fill="#fbae3c"></path></g><g transform="translate(0, 600)"><path d="M0 -351.5C26.5 -314 53 -276.4 86.8 -267.2C120.7 -258.1 162 -277.5 198.1 -272.6C234.2 -267.8 265.1 -238.8 284.4 -206.6C303.7 -174.5 311.3 -139.1 320.5 -104.1C329.7 -69.2 340.6 -34.6 351.5 0L0 0Z" fill="#0f1d33"></path><path d="M0 -301.3C22.7 -269.1 45.4 -236.9 74.4 -229.1C103.5 -221.3 138.8 -237.8 169.8 -233.7C200.7 -229.6 227.3 -204.7 243.8 -177.1C260.3 -149.5 266.8 -119.2 274.7 -89.3C282.6 -59.3 292 -29.6 301.3 0L0 0Z" fill="#3d3056"></path><path d="M0 -251.1C18.9 -224.3 37.8 -197.4 62 -190.9C86.2 -184.4 115.7 -198.2 141.5 -194.7C167.3 -191.3 189.4 -170.6 203.1 -147.6C216.9 -124.6 222.3 -99.4 228.9 -74.4C235.5 -49.4 243.3 -24.7 251.1 0L0 0Z" fill="#773d6b"></path><path d="M0 -200.9C15.1 -179.4 30.3 -157.9 49.6 -152.7C69 -147.5 92.6 -158.6 113.2 -155.8C133.8 -153 151.5 -136.5 162.5 -118.1C173.5 -99.7 177.9 -79.5 183.1 -59.5C188.4 -39.5 194.7 -19.8 200.9 0L0 0Z" fill="#b34c6d"></path><path d="M0 -150.7C11.3 -134.6 22.7 -118.4 37.2 -114.5C51.7 -110.6 69.4 -118.9 84.9 -116.8C100.4 -114.8 113.6 -102.3 121.9 -88.6C130.1 -74.8 133.4 -59.6 137.4 -44.6C141.3 -29.6 146 -14.8 150.7 0L0 0Z" fill="#e1685e"></path><path d="M0 -100.4C7.6 -89.7 15.1 -79 24.8 -76.4C34.5 -73.8 46.3 -79.3 56.6 -77.9C66.9 -76.5 75.8 -68.2 81.3 -59C86.8 -49.8 88.9 -39.7 91.6 -29.8C94.2 -19.8 97.3 -9.9 100.4 0L0 0Z" fill="#f99447"></path><path d="M0 -50.2C3.8 -44.9 7.6 -39.5 12.4 -38.2C17.2 -36.9 23.1 -39.6 28.3 -38.9C33.5 -38.3 37.9 -34.1 40.6 -29.5C43.4 -24.9 44.5 -19.9 45.8 -14.9C47.1 -9.9 48.7 -4.9 50.2 0L0 0Z" fill="#fbae3c"></path></g></svg>